<svg id="visual" viewBox="0 0 900 300" width="900" height="300" xmlns="http://www.w3.org/2000/svg" xmlns:xlink="http://www.w3.org/1999/xlink" version="1.1"><rect x="0" y="0" width="900" height="300" fill="#f4f1de"></rect><path d="M0 184L25 180.8C50 177.7 100 171.3 150 173.7C200 176 250 187 300 184.7C350 182.3 400 166.7 450 162.7C500 158.7 550 166.3 600 162C650 157.7 700 141.3 750 142.2C800 143 850 161 875 170L900 179L900 301L875 301C850 301 800 301 750 301C700 301 650 301 600 301C550 301 500 301 450 301C400 301 350 301 300 301C250 301 200 301 150 301C100 301 50 301 25 301L0 301Z" fill="#a9c9b7"></path><path d="M0 175L25 177.8C50 180.7 100 186.3 150 192.7C200 199 250 206 300 214.2C350 222.3 400 231.7 450 225.5C500 219.3 550 197.7 600 198.3C650 199 700 222 750 232.5C800 243 850 241 875 240L900 239L900 301L875 301C850 301 800 301 750 301C700 301 650 301 600 301C550 301 500 301 450 301C400 301 350 301 300 301C250 301 200 301 150 301C100 301 50 301 25 301L0 301Z" fill="#81b29a"></path><path d="M0 243L25 245.5C50 248 100 253 150 250.2C200 247.3 250 236.7 300 239.5C350 242.3 400 258.7 450 262C500 265.3 550 255.7 600 252.8C650 250 700 254 750 258.8C800 263.7 850 269.3 875 272.2L900 275L900 301L875 301C850 301 800 301 750 301C700 301 650 301 600 301C550 301 500 301 450 301C400 301 350 301 300 301C250 301 200 301 150 301C100 301 50 301 25 301L0 301Z" fill="#5d8471"></path></svg>