<svg id="visual" viewBox="0 0 900 300" width="900" height="300" xmlns="http://www.w3.org/2000/svg" xmlns:xlink="http://www.w3.org/1999/xlink" version="1.1"><rect x="0" y="0" width="900" height="300" fill="#638471"></rect><path d="M0 189L60 223L120 191L180 201L240 182L300 186L360 222L420 217L480 217L540 213L600 218L660 217L720 191L780 192L840 204L900 216L900 301L840 301L780 301L720 301L660 301L600 301L540 301L480 301L420 301L360 301L300 301L240 301L180 301L120 301L60 301L0 301Z" fill="#547a65"></path><path d="M0 226L60 218L120 198L180 230L240 224L300 219L360 236L420 209L480 227L540 199L600 213L660 198L720 214L780 233L840 216L900 211L900 301L840 301L780 301L720 301L660 301L600 301L540 301L480 301L420 301L360 301L300 301L240 301L180 301L120 301L60 301L0 301Z" fill="#426753"></path><path d="M0 234L60 251L120 225L180 239L240 246L300 229L360 247L420 224L480 249L540 221L600 226L660 226L720 242L780 234L840 253L900 252L900 301L840 301L780 301L720 301L660 301L600 301L540 301L480 301L420 301L360 301L300 301L240 301L180 301L120 301L60 301L0 301Z" fill="#305541"></path><path d="M0 250L60 246L120 260L180 267L240 270L300 243L360 253L420 265L480 256L540 252L600 256L660 254L720 255L780 242L840 248L900 266L900 301L840 301L780 301L720 301L660 301L600 301L540 301L480 301L420 301L360 301L300 301L240 301L180 301L120 301L60 301L0 301Z" fill="#2a4938"></path><path d="M0 270L60 272L120 275L180 284L240 275L300 269L360 262L420 265L480 280L540 265L600 273L660 279L720 286L780 265L840 276L900 285L900 301L840 301L780 301L720 301L660 301L600 301L540 301L480 301L420 301L360 301L300 301L240 301L180 301L120 301L60 301L0 301Z" fill="#243e30"></path></svg>